<mxfile>
    <diagram id="6hGFLwfOUW9BJ-s0fimq" name="Page-1">
        <mxGraphModel dx="1122" dy="419" grid="1" gridSize="10" guides="1" tooltips="1" connect="1" arrows="1" fold="1" page="1" pageScale="1" pageWidth="1169" pageHeight="1654" math="0" shadow="0">
            <root>
                <mxCell id="0"/>
                <mxCell id="1" parent="0"/>
                <mxCell id="2" value="Portfolio" style="rounded=1;whiteSpace=wrap;html=1;direction=south;" parent="1" vertex="1">
                    <mxGeometry x="110" y="500" width="60" height="120" as="geometry"/>
                </mxCell>
                <mxCell id="3" value="Entry" style="rounded=1;whiteSpace=wrap;html=1;direction=south;" parent="1" vertex="1">
                    <mxGeometry x="210" y="500" width="60" height="120" as="geometry"/>
                </mxCell>
                <mxCell id="5" value="ClickHouse" style="shape=cylinder;whiteSpace=wrap;html=1;boundedLbl=1;backgroundOutline=1;" parent="1" vertex="1">
                    <mxGeometry x="1070" y="860" width="60" height="80" as="geometry"/>
                </mxCell>
                <mxCell id="53" style="edgeStyle=orthogonalEdgeStyle;rounded=0;orthogonalLoop=1;jettySize=auto;html=1;exitX=0;exitY=0.75;exitDx=0;exitDy=0;" parent="1" source="12" edge="1">
                    <mxGeometry relative="1" as="geometry">
                        <Array as="points">
                            <mxPoint x="110" y="915"/>
                            <mxPoint x="110" y="822"/>
                        </Array>
                        <mxPoint x="110" y="822" as="targetPoint"/>
                    </mxGeometry>
                </mxCell>
                <mxCell id="54" value="BookedStocks" style="edgeLabel;html=1;align=center;verticalAlign=middle;resizable=0;points=[];" parent="53" vertex="1" connectable="0">
                    <mxGeometry x="0.2199" y="-4" relative="1" as="geometry">
                        <mxPoint x="37" y="-22" as="offset"/>
                    </mxGeometry>
                </mxCell>
                <mxCell id="55" style="edgeStyle=orthogonalEdgeStyle;rounded=0;orthogonalLoop=1;jettySize=auto;html=1;exitX=1;exitY=0.75;exitDx=0;exitDy=0;entryX=0.028;entryY=0.983;entryDx=0;entryDy=0;entryPerimeter=0;" parent="1" source="12" target="19" edge="1">
                    <mxGeometry relative="1" as="geometry">
                        <Array as="points">
                            <mxPoint x="38" y="915"/>
                        </Array>
                    </mxGeometry>
                </mxCell>
                <mxCell id="56" value="InitialMoney" style="edgeLabel;html=1;align=center;verticalAlign=middle;resizable=0;points=[];" parent="55" vertex="1" connectable="0">
                    <mxGeometry x="-0.0469" y="-4" relative="1" as="geometry">
                        <mxPoint x="-12.3" y="-36.7" as="offset"/>
                    </mxGeometry>
                </mxCell>
                <mxCell id="12" value="" style="shape=actor;whiteSpace=wrap;html=1;" parent="1" vertex="1">
                    <mxGeometry x="50" y="870" width="40" height="60" as="geometry"/>
                </mxCell>
                <mxCell id="44" style="edgeStyle=orthogonalEdgeStyle;rounded=0;orthogonalLoop=1;jettySize=auto;html=1;entryX=1;entryY=0.75;entryDx=0;entryDy=0;" parent="1" target="2" edge="1">
                    <mxGeometry relative="1" as="geometry">
                        <mxPoint x="125" y="759" as="sourcePoint"/>
                    </mxGeometry>
                </mxCell>
                <mxCell id="45" value="BookedStocks" style="edgeLabel;html=1;align=center;verticalAlign=middle;resizable=0;points=[];rotation=90;" parent="44" vertex="1" connectable="0">
                    <mxGeometry x="0.019" y="-1" relative="1" as="geometry">
                        <mxPoint x="-16" y="1.8200000000000003" as="offset"/>
                    </mxGeometry>
                </mxCell>
                <mxCell id="19" value="Message Queue" style="rounded=1;whiteSpace=wrap;html=1;" parent="1" vertex="1">
                    <mxGeometry x="10" y="760" width="1120" height="60" as="geometry"/>
                </mxCell>
                <mxCell id="31" value="Position" style="rounded=1;whiteSpace=wrap;html=1;direction=south;" parent="1" vertex="1">
                    <mxGeometry x="310" y="500" width="60" height="120" as="geometry"/>
                </mxCell>
                <mxCell id="34" value="Risk" style="rounded=1;whiteSpace=wrap;html=1;direction=south;" parent="1" vertex="1">
                    <mxGeometry x="413.5" y="500" width="60" height="120" as="geometry"/>
                </mxCell>
                <mxCell id="36" value="" style="endArrow=classic;html=1;exitX=1;exitY=0.25;exitDx=0;exitDy=0;" parent="1" source="128" edge="1">
                    <mxGeometry width="50" height="50" relative="1" as="geometry">
                        <mxPoint x="370" y="360" as="sourcePoint"/>
                        <mxPoint x="55" y="758" as="targetPoint"/>
                    </mxGeometry>
                </mxCell>
                <mxCell id="47" style="edgeStyle=orthogonalEdgeStyle;rounded=0;orthogonalLoop=1;jettySize=auto;html=1;exitX=0.042;exitY=-0.017;exitDx=0;exitDy=0;entryX=1;entryY=0.75;entryDx=0;entryDy=0;exitPerimeter=0;" parent="1" edge="1">
                    <mxGeometry relative="1" as="geometry">
                        <mxPoint x="219.99999999999997" y="759.98" as="sourcePoint"/>
                        <mxPoint x="220.22" y="621" as="targetPoint"/>
                        <Array as="points">
                            <mxPoint x="220" y="720"/>
                            <mxPoint x="220" y="720"/>
                        </Array>
                    </mxGeometry>
                </mxCell>
                <mxCell id="48" value="RealtimeQuotes" style="edgeLabel;html=1;align=center;verticalAlign=middle;resizable=0;points=[];rotation=90;" parent="47" vertex="1" connectable="0">
                    <mxGeometry x="0.019" y="-1" relative="1" as="geometry">
                        <mxPoint x="-16" y="1.8200000000000003" as="offset"/>
                    </mxGeometry>
                </mxCell>
                <mxCell id="49" value="" style="endArrow=classic;html=1;exitX=1;exitY=0.25;exitDx=0;exitDy=0;entryX=0.093;entryY=0;entryDx=0;entryDy=0;entryPerimeter=0;" parent="1" edge="1">
                    <mxGeometry width="50" height="50" relative="1" as="geometry">
                        <mxPoint x="250.13" y="620" as="sourcePoint"/>
                        <mxPoint x="249.9999999999999" y="760" as="targetPoint"/>
                    </mxGeometry>
                </mxCell>
                <mxCell id="50" value="BuySingal " style="edgeLabel;html=1;align=center;verticalAlign=middle;resizable=0;points=[];rotation=90;" parent="49" vertex="1" connectable="0">
                    <mxGeometry x="-0.1818" y="1" relative="1" as="geometry">
                        <mxPoint x="14.05" y="13" as="offset"/>
                    </mxGeometry>
                </mxCell>
                <mxCell id="51" style="edgeStyle=orthogonalEdgeStyle;rounded=0;orthogonalLoop=1;jettySize=auto;html=1;exitX=0.042;exitY=-0.017;exitDx=0;exitDy=0;entryX=1;entryY=0.75;entryDx=0;entryDy=0;exitPerimeter=0;" parent="1" edge="1">
                    <mxGeometry relative="1" as="geometry">
                        <mxPoint x="320" y="758.98" as="sourcePoint"/>
                        <mxPoint x="320.22" y="620" as="targetPoint"/>
                        <Array as="points">
                            <mxPoint x="320" y="719"/>
                            <mxPoint x="320" y="719"/>
                        </Array>
                    </mxGeometry>
                </mxCell>
                <mxCell id="52" value="BuySingal&amp;nbsp; /&amp;nbsp; portfolio / SaleSingal" style="edgeLabel;html=1;align=center;verticalAlign=middle;resizable=0;points=[];rotation=90;" parent="51" vertex="1" connectable="0">
                    <mxGeometry x="0.019" y="-1" relative="1" as="geometry">
                        <mxPoint x="-16" y="1.8200000000000003" as="offset"/>
                    </mxGeometry>
                </mxCell>
                <mxCell id="59" value="" style="endArrow=classic;html=1;exitX=1;exitY=0.25;exitDx=0;exitDy=0;entryX=0.093;entryY=0;entryDx=0;entryDy=0;entryPerimeter=0;" parent="1" edge="1">
                    <mxGeometry width="50" height="50" relative="1" as="geometry">
                        <mxPoint x="350.13" y="620" as="sourcePoint"/>
                        <mxPoint x="349.9999999999999" y="760" as="targetPoint"/>
                    </mxGeometry>
                </mxCell>
                <mxCell id="60" value="PreOrder" style="edgeLabel;html=1;align=center;verticalAlign=middle;resizable=0;points=[];rotation=90;" parent="59" vertex="1" connectable="0">
                    <mxGeometry x="-0.1818" y="1" relative="1" as="geometry">
                        <mxPoint x="14.05" y="13" as="offset"/>
                    </mxGeometry>
                </mxCell>
                <mxCell id="61" style="edgeStyle=orthogonalEdgeStyle;rounded=0;orthogonalLoop=1;jettySize=auto;html=1;exitX=0.042;exitY=-0.017;exitDx=0;exitDy=0;entryX=1;entryY=0.75;entryDx=0;entryDy=0;exitPerimeter=0;" parent="1" edge="1">
                    <mxGeometry relative="1" as="geometry">
                        <mxPoint x="440" y="758.98" as="sourcePoint"/>
                        <mxPoint x="440.22" y="620" as="targetPoint"/>
                        <Array as="points">
                            <mxPoint x="440" y="670"/>
                            <mxPoint x="440" y="670"/>
                        </Array>
                    </mxGeometry>
                </mxCell>
                <mxCell id="62" value="PreOrder&amp;nbsp; / protfolio" style="edgeLabel;html=1;align=center;verticalAlign=middle;resizable=0;points=[];rotation=90;" parent="61" vertex="1" connectable="0">
                    <mxGeometry x="0.019" y="-1" relative="1" as="geometry">
                        <mxPoint x="-16" y="1.8200000000000003" as="offset"/>
                    </mxGeometry>
                </mxCell>
                <mxCell id="63" value="" style="endArrow=classic;html=1;exitX=1;exitY=0.25;exitDx=0;exitDy=0;entryX=0.093;entryY=0;entryDx=0;entryDy=0;entryPerimeter=0;" parent="1" edge="1">
                    <mxGeometry width="50" height="50" relative="1" as="geometry">
                        <mxPoint x="460" y="620" as="sourcePoint"/>
                        <mxPoint x="459.8699999999999" y="760" as="targetPoint"/>
                    </mxGeometry>
                </mxCell>
                <mxCell id="64" value="Order" style="edgeLabel;html=1;align=center;verticalAlign=middle;resizable=0;points=[];rotation=90;" parent="63" vertex="1" connectable="0">
                    <mxGeometry x="-0.1818" y="1" relative="1" as="geometry">
                        <mxPoint x="14.05" y="13" as="offset"/>
                    </mxGeometry>
                </mxCell>
                <mxCell id="65" value="&lt;br&gt;/'&lt;br&gt;,.,l ,.m,&amp;nbsp; &amp;nbsp; &amp;nbsp; &amp;nbsp; &amp;nbsp; &amp;nbsp; &amp;nbsp; &amp;nbsp; &amp;nbsp; &amp;nbsp; &amp;nbsp; m.&amp;nbsp; &amp;nbsp; &amp;nbsp; &amp;nbsp; &amp;nbsp; '" style="rounded=1;whiteSpace=wrap;html=1;direction=south;" parent="1" vertex="1">
                    <mxGeometry x="520" y="500" width="60" height="120" as="geometry"/>
                </mxCell>
                <mxCell id="68" style="edgeStyle=orthogonalEdgeStyle;rounded=0;orthogonalLoop=1;jettySize=auto;html=1;exitX=0.042;exitY=-0.017;exitDx=0;exitDy=0;entryX=1;entryY=0.75;entryDx=0;entryDy=0;exitPerimeter=0;" parent="1" edge="1">
                    <mxGeometry relative="1" as="geometry">
                        <mxPoint x="530" y="758.98" as="sourcePoint"/>
                        <mxPoint x="530.22" y="620" as="targetPoint"/>
                        <Array as="points">
                            <mxPoint x="530" y="719"/>
                            <mxPoint x="530" y="719"/>
                        </Array>
                    </mxGeometry>
                </mxCell>
                <mxCell id="70" value="Order" style="text;html=1;align=center;verticalAlign=middle;resizable=0;points=[];autosize=1;rotation=90;" parent="1" vertex="1">
                    <mxGeometry x="495" y="680" width="50" height="20" as="geometry"/>
                </mxCell>
                <mxCell id="71" value="证券公司" style="ellipse;shape=cloud;whiteSpace=wrap;html=1;" parent="1" vertex="1">
                    <mxGeometry x="450" y="250" width="120" height="80" as="geometry"/>
                </mxCell>
                <mxCell id="73" value="" style="endArrow=classic;html=1;exitX=1;exitY=0.25;exitDx=0;exitDy=0;entryX=0.093;entryY=0;entryDx=0;entryDy=0;entryPerimeter=0;" parent="1" edge="1">
                    <mxGeometry width="50" height="50" relative="1" as="geometry">
                        <mxPoint x="570.13" y="620" as="sourcePoint"/>
                        <mxPoint x="569.9999999999999" y="760" as="targetPoint"/>
                    </mxGeometry>
                </mxCell>
                <mxCell id="74" value="ActualOrder" style="edgeLabel;html=1;align=center;verticalAlign=middle;resizable=0;points=[];rotation=90;" parent="73" vertex="1" connectable="0">
                    <mxGeometry x="-0.1818" y="1" relative="1" as="geometry">
                        <mxPoint x="14.05" y="13" as="offset"/>
                    </mxGeometry>
                </mxCell>
                <mxCell id="76" value="LockProfit" style="rounded=1;whiteSpace=wrap;html=1;direction=south;" parent="1" vertex="1">
                    <mxGeometry x="960" y="500" width="60" height="120" as="geometry"/>
                </mxCell>
                <mxCell id="77" value="BackTest" style="rounded=1;whiteSpace=wrap;html=1;direction=south;" parent="1" vertex="1">
                    <mxGeometry x="740" y="500" width="60" height="120" as="geometry"/>
                </mxCell>
                <mxCell id="80" value="StopLoss" style="rounded=1;whiteSpace=wrap;html=1;direction=south;" parent="1" vertex="1">
                    <mxGeometry x="850" y="500" width="60" height="120" as="geometry"/>
                </mxCell>
                <mxCell id="81" value="ScaleOut" style="rounded=1;whiteSpace=wrap;html=1;direction=south;" parent="1" vertex="1">
                    <mxGeometry x="630" y="500" width="60" height="120" as="geometry"/>
                </mxCell>
                <mxCell id="82" style="edgeStyle=orthogonalEdgeStyle;rounded=0;orthogonalLoop=1;jettySize=auto;html=1;exitX=0.042;exitY=-0.017;exitDx=0;exitDy=0;entryX=1;entryY=0.75;entryDx=0;entryDy=0;exitPerimeter=0;" parent="1" edge="1">
                    <mxGeometry relative="1" as="geometry">
                        <mxPoint x="650" y="758.98" as="sourcePoint"/>
                        <mxPoint x="650.22" y="620" as="targetPoint"/>
                        <Array as="points">
                            <mxPoint x="650" y="670"/>
                            <mxPoint x="650" y="670"/>
                        </Array>
                    </mxGeometry>
                </mxCell>
                <mxCell id="83" value="&amp;nbsp;portfolio / RealtimeQuotes" style="edgeLabel;html=1;align=center;verticalAlign=middle;resizable=0;points=[];rotation=90;" parent="82" vertex="1" connectable="0">
                    <mxGeometry x="0.019" y="-1" relative="1" as="geometry">
                        <mxPoint x="-16" y="1.8200000000000003" as="offset"/>
                    </mxGeometry>
                </mxCell>
                <mxCell id="84" value="" style="endArrow=classic;html=1;exitX=1;exitY=0.25;exitDx=0;exitDy=0;entryX=0.093;entryY=0;entryDx=0;entryDy=0;entryPerimeter=0;" parent="1" edge="1">
                    <mxGeometry width="50" height="50" relative="1" as="geometry">
                        <mxPoint x="670.13" y="620" as="sourcePoint"/>
                        <mxPoint x="669.9999999999999" y="760" as="targetPoint"/>
                    </mxGeometry>
                </mxCell>
                <mxCell id="85" value="BuySingal" style="edgeLabel;html=1;align=center;verticalAlign=middle;resizable=0;points=[];rotation=90;" parent="84" vertex="1" connectable="0">
                    <mxGeometry x="-0.1818" y="1" relative="1" as="geometry">
                        <mxPoint x="14.05" y="13" as="offset"/>
                    </mxGeometry>
                </mxCell>
                <mxCell id="89" style="edgeStyle=orthogonalEdgeStyle;rounded=0;orthogonalLoop=1;jettySize=auto;html=1;exitX=0.042;exitY=-0.017;exitDx=0;exitDy=0;entryX=1;entryY=0.75;entryDx=0;entryDy=0;exitPerimeter=0;" parent="1" edge="1">
                    <mxGeometry relative="1" as="geometry">
                        <mxPoint x="750" y="758.98" as="sourcePoint"/>
                        <mxPoint x="750.22" y="620" as="targetPoint"/>
                        <Array as="points">
                            <mxPoint x="750" y="719"/>
                            <mxPoint x="750" y="719"/>
                        </Array>
                    </mxGeometry>
                </mxCell>
                <mxCell id="90" value="StockData" style="text;html=1;align=center;verticalAlign=middle;resizable=0;points=[];autosize=1;rotation=90;" parent="1" vertex="1">
                    <mxGeometry x="705" y="680" width="70" height="20" as="geometry"/>
                </mxCell>
                <mxCell id="94" value="" style="endArrow=classic;html=1;exitX=1;exitY=0.25;exitDx=0;exitDy=0;entryX=0.093;entryY=0;entryDx=0;entryDy=0;entryPerimeter=0;" parent="1" edge="1">
                    <mxGeometry width="50" height="50" relative="1" as="geometry">
                        <mxPoint x="780.13" y="620" as="sourcePoint"/>
                        <mxPoint x="779.9999999999999" y="760" as="targetPoint"/>
                    </mxGeometry>
                </mxCell>
                <mxCell id="95" value="TrackEvent" style="edgeLabel;html=1;align=center;verticalAlign=middle;resizable=0;points=[];rotation=90;" parent="94" vertex="1" connectable="0">
                    <mxGeometry x="-0.1818" y="1" relative="1" as="geometry">
                        <mxPoint x="14.05" y="13" as="offset"/>
                    </mxGeometry>
                </mxCell>
                <mxCell id="99" style="edgeStyle=orthogonalEdgeStyle;rounded=0;orthogonalLoop=1;jettySize=auto;html=1;exitX=0.042;exitY=-0.017;exitDx=0;exitDy=0;entryX=1;entryY=0.75;entryDx=0;entryDy=0;exitPerimeter=0;" parent="1" edge="1">
                    <mxGeometry relative="1" as="geometry">
                        <mxPoint x="860" y="758.98" as="sourcePoint"/>
                        <mxPoint x="860.22" y="620" as="targetPoint"/>
                        <Array as="points">
                            <mxPoint x="860" y="719"/>
                            <mxPoint x="860" y="719"/>
                        </Array>
                    </mxGeometry>
                </mxCell>
                <mxCell id="100" value="portfolio / RealtimeQuotes" style="edgeLabel;html=1;align=center;verticalAlign=middle;resizable=0;points=[];rotation=90;" parent="99" vertex="1" connectable="0">
                    <mxGeometry x="0.019" y="-1" relative="1" as="geometry">
                        <mxPoint x="-16" y="1.8200000000000003" as="offset"/>
                    </mxGeometry>
                </mxCell>
                <mxCell id="103" value="" style="endArrow=classic;html=1;exitX=1;exitY=0.25;exitDx=0;exitDy=0;entryX=0.093;entryY=0;entryDx=0;entryDy=0;entryPerimeter=0;" parent="1" edge="1">
                    <mxGeometry width="50" height="50" relative="1" as="geometry">
                        <mxPoint x="890" y="620" as="sourcePoint"/>
                        <mxPoint x="889.8699999999999" y="760" as="targetPoint"/>
                    </mxGeometry>
                </mxCell>
                <mxCell id="104" value="SaleSingal" style="edgeLabel;html=1;align=center;verticalAlign=middle;resizable=0;points=[];rotation=90;" parent="103" vertex="1" connectable="0">
                    <mxGeometry x="-0.1818" y="1" relative="1" as="geometry">
                        <mxPoint x="14.05" y="13" as="offset"/>
                    </mxGeometry>
                </mxCell>
                <mxCell id="105" style="edgeStyle=orthogonalEdgeStyle;rounded=0;orthogonalLoop=1;jettySize=auto;html=1;exitX=0.042;exitY=-0.017;exitDx=0;exitDy=0;entryX=1;entryY=0.75;entryDx=0;entryDy=0;exitPerimeter=0;" parent="1" edge="1">
                    <mxGeometry relative="1" as="geometry">
                        <mxPoint x="970" y="760" as="sourcePoint"/>
                        <mxPoint x="970.22" y="621.02" as="targetPoint"/>
                        <Array as="points">
                            <mxPoint x="970" y="720.02"/>
                            <mxPoint x="970" y="720.02"/>
                        </Array>
                    </mxGeometry>
                </mxCell>
                <mxCell id="106" value="portfolio / RealtimeQuotes" style="edgeLabel;html=1;align=center;verticalAlign=middle;resizable=0;points=[];rotation=90;" parent="105" vertex="1" connectable="0">
                    <mxGeometry x="0.019" y="-1" relative="1" as="geometry">
                        <mxPoint x="-16" y="1.8200000000000003" as="offset"/>
                    </mxGeometry>
                </mxCell>
                <mxCell id="107" value="" style="endArrow=classic;html=1;exitX=1;exitY=0.25;exitDx=0;exitDy=0;entryX=0.093;entryY=0;entryDx=0;entryDy=0;entryPerimeter=0;" parent="1" edge="1">
                    <mxGeometry width="50" height="50" relative="1" as="geometry">
                        <mxPoint x="1000.13" y="620" as="sourcePoint"/>
                        <mxPoint x="999.9999999999999" y="760" as="targetPoint"/>
                    </mxGeometry>
                </mxCell>
                <mxCell id="108" value="SaleSingal" style="edgeLabel;html=1;align=center;verticalAlign=middle;resizable=0;points=[];rotation=90;" parent="107" vertex="1" connectable="0">
                    <mxGeometry x="-0.1818" y="1" relative="1" as="geometry">
                        <mxPoint x="14.05" y="13" as="offset"/>
                    </mxGeometry>
                </mxCell>
                <mxCell id="109" value="行情" style="ellipse;shape=cloud;whiteSpace=wrap;html=1;" parent="1" vertex="1">
                    <mxGeometry x="10" y="250" width="120" height="80" as="geometry"/>
                </mxCell>
                <mxCell id="110" value="" style="endArrow=classic;startArrow=classic;html=1;entryX=0.383;entryY=0.9;entryDx=0;entryDy=0;entryPerimeter=0;exitX=0;exitY=0.5;exitDx=0;exitDy=0;" parent="1" source="128" target="109" edge="1">
                    <mxGeometry width="50" height="50" relative="1" as="geometry">
                        <mxPoint x="135" y="500" as="sourcePoint"/>
                        <mxPoint x="185" y="450" as="targetPoint"/>
                    </mxGeometry>
                </mxCell>
                <mxCell id="111" value="" style="endArrow=classic;startArrow=classic;html=1;entryX=0.55;entryY=0.95;entryDx=0;entryDy=0;entryPerimeter=0;exitX=0;exitY=0.5;exitDx=0;exitDy=0;" parent="1" source="65" target="71" edge="1">
                    <mxGeometry width="50" height="50" relative="1" as="geometry">
                        <mxPoint x="430" y="520" as="sourcePoint"/>
                        <mxPoint x="480" y="470" as="targetPoint"/>
                    </mxGeometry>
                </mxCell>
                <mxCell id="117" style="edgeStyle=orthogonalEdgeStyle;rounded=0;orthogonalLoop=1;jettySize=auto;html=1;exitX=0.5;exitY=1;exitDx=0;exitDy=0;entryX=0;entryY=0.5;entryDx=0;entryDy=0;" parent="1" source="116" target="3" edge="1">
                    <mxGeometry relative="1" as="geometry"/>
                </mxCell>
                <mxCell id="116" value="List&lt;br&gt;Metrics&lt;br&gt;Func" style="shape=dataStorage;whiteSpace=wrap;html=1;" parent="1" vertex="1">
                    <mxGeometry x="190" y="350" width="100" height="80" as="geometry"/>
                </mxCell>
                <mxCell id="118" value="List&lt;br&gt;Metrics&lt;br&gt;Func" style="shape=dataStorage;whiteSpace=wrap;html=1;" parent="1" vertex="1">
                    <mxGeometry x="610" y="350" width="100" height="80" as="geometry"/>
                </mxCell>
                <mxCell id="119" style="edgeStyle=orthogonalEdgeStyle;rounded=0;orthogonalLoop=1;jettySize=auto;html=1;exitX=0.5;exitY=1;exitDx=0;exitDy=0;entryX=0;entryY=0.5;entryDx=0;entryDy=0;" parent="1" source="118" target="81" edge="1">
                    <mxGeometry relative="1" as="geometry">
                        <mxPoint x="640" y="460" as="sourcePoint"/>
                        <mxPoint x="640" y="530" as="targetPoint"/>
                    </mxGeometry>
                </mxCell>
                <mxCell id="120" value="List&lt;br&gt;Metrics&lt;br&gt;Func" style="shape=dataStorage;whiteSpace=wrap;html=1;" parent="1" vertex="1">
                    <mxGeometry x="720" y="350" width="100" height="80" as="geometry"/>
                </mxCell>
                <mxCell id="121" style="edgeStyle=orthogonalEdgeStyle;rounded=0;orthogonalLoop=1;jettySize=auto;html=1;exitX=0.5;exitY=1;exitDx=0;exitDy=0;entryX=0;entryY=0.5;entryDx=0;entryDy=0;" parent="1" source="120" target="77" edge="1">
                    <mxGeometry relative="1" as="geometry">
                        <mxPoint x="760" y="460" as="sourcePoint"/>
                        <mxPoint x="760" y="530" as="targetPoint"/>
                    </mxGeometry>
                </mxCell>
                <mxCell id="122" value="List&lt;br&gt;Metrics&lt;br&gt;Func" style="shape=dataStorage;whiteSpace=wrap;html=1;" parent="1" vertex="1">
                    <mxGeometry x="830" y="350" width="100" height="80" as="geometry"/>
                </mxCell>
                <mxCell id="123" style="edgeStyle=orthogonalEdgeStyle;rounded=0;orthogonalLoop=1;jettySize=auto;html=1;exitX=0.5;exitY=1;exitDx=0;exitDy=0;entryX=0;entryY=0.5;entryDx=0;entryDy=0;" parent="1" source="122" target="80" edge="1">
                    <mxGeometry relative="1" as="geometry">
                        <mxPoint x="870" y="450" as="sourcePoint"/>
                        <mxPoint x="870" y="520" as="targetPoint"/>
                    </mxGeometry>
                </mxCell>
                <mxCell id="124" value="List&lt;br&gt;Metrics&lt;br&gt;Func" style="shape=dataStorage;whiteSpace=wrap;html=1;" parent="1" vertex="1">
                    <mxGeometry x="940" y="350" width="100" height="80" as="geometry"/>
                </mxCell>
                <mxCell id="125" style="edgeStyle=orthogonalEdgeStyle;rounded=0;orthogonalLoop=1;jettySize=auto;html=1;exitX=0.5;exitY=1;exitDx=0;exitDy=0;entryX=0;entryY=0.5;entryDx=0;entryDy=0;" parent="1" source="124" target="76" edge="1">
                    <mxGeometry relative="1" as="geometry">
                        <mxPoint x="980" y="440" as="sourcePoint"/>
                        <mxPoint x="980" y="510" as="targetPoint"/>
                    </mxGeometry>
                </mxCell>
                <mxCell id="127" value="Text" style="text;html=1;align=center;verticalAlign=middle;resizable=0;points=[];autosize=1;" parent="1" vertex="1">
                    <mxGeometry x="627" y="722" width="40" height="20" as="geometry"/>
                </mxCell>
                <mxCell id="128" value="Quote" style="rounded=1;whiteSpace=wrap;html=1;direction=south;" parent="1" vertex="1">
                    <mxGeometry x="10" y="500" width="60" height="120" as="geometry"/>
                </mxCell>
                <mxCell id="129" style="edgeStyle=orthogonalEdgeStyle;rounded=0;orthogonalLoop=1;jettySize=auto;html=1;entryX=1;entryY=0.75;entryDx=0;entryDy=0;" parent="1" edge="1">
                    <mxGeometry relative="1" as="geometry">
                        <mxPoint x="30" y="759" as="sourcePoint"/>
                        <mxPoint x="30" y="620" as="targetPoint"/>
                    </mxGeometry>
                </mxCell>
                <mxCell id="130" value="BookedStocks" style="edgeLabel;html=1;align=center;verticalAlign=middle;resizable=0;points=[];rotation=90;" parent="129" vertex="1" connectable="0">
                    <mxGeometry x="0.019" y="-1" relative="1" as="geometry">
                        <mxPoint x="-16" y="1.8200000000000003" as="offset"/>
                    </mxGeometry>
                </mxCell>
                <mxCell id="131" value="RealtimeQuotes" style="text;html=1;align=center;verticalAlign=middle;resizable=0;points=[];autosize=1;rotation=90;" parent="1" vertex="1">
                    <mxGeometry x="20" y="680" width="100" height="20" as="geometry"/>
                </mxCell>
                <mxCell id="132" value="" style="endArrow=classic;html=1;exitX=1;exitY=0.25;exitDx=0;exitDy=0;entryX=0.093;entryY=0;entryDx=0;entryDy=0;entryPerimeter=0;" parent="1" edge="1">
                    <mxGeometry width="50" height="50" relative="1" as="geometry">
                        <mxPoint x="150.13" y="620" as="sourcePoint"/>
                        <mxPoint x="149.9999999999999" y="760" as="targetPoint"/>
                    </mxGeometry>
                </mxCell>
                <mxCell id="133" value="portfolio" style="edgeLabel;html=1;align=center;verticalAlign=middle;resizable=0;points=[];rotation=90;" parent="132" vertex="1" connectable="0">
                    <mxGeometry x="-0.1818" y="1" relative="1" as="geometry">
                        <mxPoint x="14.05" y="13" as="offset"/>
                    </mxGeometry>
                </mxCell>
                <mxCell id="134" value="Exit" style="rounded=1;whiteSpace=wrap;html=1;direction=south;" parent="1" vertex="1">
                    <mxGeometry x="1070" y="500" width="60" height="120" as="geometry"/>
                </mxCell>
                <mxCell id="136" value="List&lt;br&gt;Metrics&lt;br&gt;Func" style="shape=dataStorage;whiteSpace=wrap;html=1;" parent="1" vertex="1">
                    <mxGeometry x="1050" y="350" width="100" height="80" as="geometry"/>
                </mxCell>
                <mxCell id="138" style="edgeStyle=orthogonalEdgeStyle;rounded=0;orthogonalLoop=1;jettySize=auto;html=1;exitX=0.5;exitY=1;exitDx=0;exitDy=0;entryX=0;entryY=0.5;entryDx=0;entryDy=0;" parent="1" source="136" target="134" edge="1">
                    <mxGeometry relative="1" as="geometry">
                        <mxPoint x="1080" y="450" as="sourcePoint"/>
                        <mxPoint x="1080" y="520" as="targetPoint"/>
                    </mxGeometry>
                </mxCell>
                <mxCell id="139" value="" style="endArrow=classic;startArrow=classic;html=1;entryX=0.5;entryY=0;entryDx=0;entryDy=0;exitX=0.973;exitY=1.033;exitDx=0;exitDy=0;exitPerimeter=0;" parent="1" source="19" target="5" edge="1">
                    <mxGeometry width="50" height="50" relative="1" as="geometry">
                        <mxPoint x="580" y="820" as="sourcePoint"/>
                        <mxPoint x="630" y="770" as="targetPoint"/>
                    </mxGeometry>
                </mxCell>
                <mxCell id="140" style="edgeStyle=orthogonalEdgeStyle;rounded=0;orthogonalLoop=1;jettySize=auto;html=1;exitX=0.042;exitY=-0.017;exitDx=0;exitDy=0;entryX=1;entryY=0.75;entryDx=0;entryDy=0;exitPerimeter=0;" parent="1" edge="1">
                    <mxGeometry relative="1" as="geometry">
                        <mxPoint x="1080" y="758.98" as="sourcePoint"/>
                        <mxPoint x="1080.2200000000003" y="620" as="targetPoint"/>
                        <Array as="points">
                            <mxPoint x="1080" y="668.98"/>
                            <mxPoint x="1080" y="668.98"/>
                        </Array>
                    </mxGeometry>
                </mxCell>
                <mxCell id="141" value="portfolio / RealtimeQuotes" style="edgeLabel;html=1;align=center;verticalAlign=middle;resizable=0;points=[];rotation=90;" parent="140" vertex="1" connectable="0">
                    <mxGeometry x="0.019" y="-1" relative="1" as="geometry">
                        <mxPoint x="-16" y="1.8200000000000003" as="offset"/>
                    </mxGeometry>
                </mxCell>
                <mxCell id="142" value="" style="endArrow=classic;html=1;exitX=1;exitY=0.25;exitDx=0;exitDy=0;entryX=0.093;entryY=0;entryDx=0;entryDy=0;entryPerimeter=0;" parent="1" edge="1">
                    <mxGeometry width="50" height="50" relative="1" as="geometry">
                        <mxPoint x="1110" y="620" as="sourcePoint"/>
                        <mxPoint x="1109.87" y="760" as="targetPoint"/>
                    </mxGeometry>
                </mxCell>
                <mxCell id="143" value="SaleSingal" style="edgeLabel;html=1;align=center;verticalAlign=middle;resizable=0;points=[];rotation=90;" parent="142" vertex="1" connectable="0">
                    <mxGeometry x="-0.1818" y="1" relative="1" as="geometry">
                        <mxPoint x="14.05" y="13" as="offset"/>
                    </mxGeometry>
                </mxCell>
            </root>
        </mxGraphModel>
    </diagram>
</mxfile>